<svg width="16" height="16" viewBox="0 0 16 16" fill="none" xmlns="http://www.w3.org/2000/svg">
<g clip-path="url(#clip0_465_640)">
<path d="M0.793526 8.63944C1.01935 8.02355 1.321 7.43817 1.69148 6.89681C1.96725 6.48592 2.27244 6.09554 2.60465 5.72871C2.41844 5.30333 2.26453 4.86455 2.14426 4.41603C1.95938 3.7873 1.8533 3.13804 1.82845 2.48315C1.83591 2.29243 1.91475 2.11148 2.04936 1.97616C2.18398 1.84085 2.36452 1.76106 2.55518 1.75262C3.21141 1.77915 3.86189 1.8865 4.49187 2.07223C4.93822 2.19855 5.37551 2.35491 5.80075 2.54023C6.14992 2.23069 6.52124 1.9471 6.91177 1.69174C7.45374 1.32126 8.03897 1.01843 8.6544 0.789981C8.8381 0.738947 9.03425 0.758717 9.20406 0.845384C9.37387 0.932048 9.50495 1.07929 9.57138 1.25798C9.75116 1.88983 9.85085 2.54177 9.86816 3.19847C9.88574 3.66949 9.87048 4.14117 9.8225 4.61008C10.2599 4.85477 10.6749 5.13743 11.0629 5.45476C11.5829 5.85515 12.0518 6.31771 12.4593 6.83213C12.5653 6.99151 12.6073 7.18499 12.5769 7.37398C12.5466 7.56297 12.4462 7.73358 12.2957 7.85183C11.9901 8.06966 11.6623 8.25458 11.3178 8.40354C12.0634 8.97176 12.7643 9.59633 13.4143 10.2717C14.3655 11.2344 15.5793 12.5242 15.5869 13.0112C15.7125 13.3917 15.3206 14.2593 14.7917 14.7881C14.2628 15.317 13.3763 15.7127 13.011 15.5872C12.5278 15.5872 11.2189 14.3658 10.2715 13.4146C9.60619 12.7737 8.98939 12.0844 8.42611 11.3523C8.29153 11.6605 8.12305 11.9527 7.92387 12.2236C7.80523 12.3725 7.63508 12.4715 7.447 12.5011C7.25893 12.5307 7.06659 12.4887 6.90797 12.3834C6.39107 11.9789 5.92707 11.5111 5.5268 10.9909C5.22355 10.6171 4.95001 10.2202 4.70875 9.80374C4.2038 9.86401 3.69459 9.88056 3.1868 9.8532C2.53026 9.83391 1.8786 9.73422 1.24631 9.55642C1.07041 9.48713 0.92662 9.35484 0.842914 9.18533C0.759206 9.01582 0.741627 8.82124 0.793526 8.63944Z" fill="#FFE236" stroke="#231F20" stroke-miterlimit="10"/>
<path d="M9.94434 8.90186C9.6837 9.00272 9.41679 9.08662 9.14531 9.15298C9.07055 9.42879 8.98166 9.70054 8.87897 9.96722" fill="#FFE236"/>
<path d="M9.94434 8.90186C9.6837 9.00272 9.41679 9.08662 9.14531 9.15298C9.07055 9.42879 8.98166 9.70054 8.87897 9.96722" stroke="#231F20" stroke-miterlimit="10" stroke-linecap="round"/>
<path d="M8.33105 1.92383C7.96563 2.07194 7.6313 2.28749 7.34559 2.55924" stroke="white" stroke-miterlimit="10" stroke-linecap="round"/>
</g>
<defs>
<clipPath id="clip0_465_640">
<rect width="16" height="16" fill="white" transform="matrix(-1 0 0 1 16 0)"/>
</clipPath>
</defs>
</svg>
