<svg width="47" height="47" viewBox="0 0 47 47" fill="none" xmlns="http://www.w3.org/2000/svg">
<path d="M23.5 2C35.3741 2 45 11.6259 45 23.5C45 35.3741 35.3741 45 23.5 45C11.6259 45 2 35.3741 2 23.5C2 11.6259 11.6259 2 23.5 2Z" fill="#FFC849"/>
<path fill-rule="evenodd" clip-rule="evenodd" d="M4 23.5C4 34.2696 12.7304 43 23.5 43C34.2695 43 43 34.2696 43 23.5C43 12.7304 34.2695 4 23.5 4C12.7304 4 4 12.7304 4 23.5ZM23.5 47C10.5213 47 0 36.4787 0 23.5C0 10.5213 10.5213 0 23.5 0C36.4787 0 47 10.5213 47 23.5C47 36.4787 36.4787 47 23.5 47ZM20.9078 10.9569C22.065 8.9701 24.9352 8.97009 26.0925 10.9569L28.5502 15.1766C28.8328 15.6618 29.3064 16.0059 29.8552 16.1247L34.6278 17.1582C36.875 17.6448 37.762 20.3746 36.23 22.0891L32.9763 25.7306C32.6022 26.1493 32.4213 26.706 32.4778 27.2646L32.9698 32.1231C33.2014 34.4106 30.8793 36.0977 28.7753 35.1706L24.3066 33.2014C23.7928 32.9749 23.2074 32.9749 22.6936 33.2014L18.225 35.1706C16.121 36.0977 13.7989 34.4106 14.0305 32.1231L14.5224 27.2646C14.579 26.706 14.3981 26.1493 14.0239 25.7306L10.7702 22.0891C9.23829 20.3746 10.1252 17.6448 12.3724 17.1582L17.1451 16.1247C17.6939 16.0059 18.1674 15.6618 18.45 15.1766L20.9078 10.9569Z" fill="white"/>
</svg>
