<svg width="68" height="68" viewBox="0 0 68 68" fill="none" xmlns="http://www.w3.org/2000/svg">
<g clip-path="url(#clip0_546_687)">
<g filter="url(#filter0_d_546_687)">
<path d="M45.428 16.1943C51.4017 22.4543 51.1696 32.3706 44.9096 38.3443C38.6496 44.318 28.7333 44.0859 22.7596 37.8259C16.7859 31.5659 17.018 21.6496 23.278 15.6759C29.538 9.70225 39.4543 9.93433 45.428 16.1943Z" fill="white" stroke="#E84011" stroke-width="2" stroke-linecap="round" stroke-linejoin="round"/>
<path d="M28.5072 41.6503L28.5928 42.2507C30.0663 52.4451 31.5552 62.7465 33.2566 62.7863C34.9586 62.8269 36.9272 52.6057 38.876 42.49L38.9903 41.8963" fill="#E84011"/>
<path d="M28.5072 41.6503L28.5928 42.2507C30.0663 52.4451 31.5552 62.7465 33.2566 62.7863C34.9586 62.8269 36.9272 52.6057 38.876 42.49L38.9903 41.8963" stroke="#E84011" stroke-width="2" stroke-linecap="round" stroke-linejoin="round"/>
<path d="M34.322 17.222C28.9154 17.0947 24.4299 21.3751 24.304 26.7818" stroke="#E84011" stroke-width="2" stroke-linecap="round" stroke-linejoin="round"/>
</g>
</g>
<defs>
<filter id="filter0_d_546_687" x="13.4268" y="10.3433" width="41.334" height="61.4434" filterUnits="userSpaceOnUse" color-interpolation-filters="sRGB">
<feFlood flood-opacity="0" result="BackgroundImageFix"/>
<feColorMatrix in="SourceAlpha" type="matrix" values="0 0 0 0 0 0 0 0 0 0 0 0 0 0 0 0 0 0 127 0" result="hardAlpha"/>
<feOffset dy="4"/>
<feGaussianBlur stdDeviation="2"/>
<feComposite in2="hardAlpha" operator="out"/>
<feColorMatrix type="matrix" values="0 0 0 0 0 0 0 0 0 0 0 0 0 0 0 0 0 0 0.25 0"/>
<feBlend mode="normal" in2="BackgroundImageFix" result="effect1_dropShadow_546_687"/>
<feBlend mode="normal" in="SourceGraphic" in2="effect1_dropShadow_546_687" result="shape"/>
</filter>
<clipPath id="clip0_546_687">
<rect width="48" height="48" fill="white" transform="translate(0 33.1377) rotate(-43.6593)"/>
</clipPath>
</defs>
</svg>
