<svg width="21" height="21" viewBox="0 0 21 21" fill="none" xmlns="http://www.w3.org/2000/svg">
<g clip-path="url(#clip0_534_777)">
<mask id="mask0_534_777" style="mask-type:luminance" maskUnits="userSpaceOnUse" x="0" y="0" width="21" height="21">
<path d="M0 0H21V21H0V0Z" fill="white"/>
</mask>
<g mask="url(#mask0_534_777)">
<path d="M16.269 6.10582C17.3291 6.30873 18.3592 6.64489 19.335 7.10615C19.7291 7.3225 20.3318 8.01535 20.4709 8.44033C20.5687 8.73911 20.5492 9.06309 20.4163 9.34696C19.8868 10.2866 19.245 11.1584 18.5051 11.9431C17.9515 12.564 17.344 13.1348 16.6899 13.6487C16.8938 14.4117 17.0377 15.1895 17.12 15.975C17.2539 17.0428 17.2539 18.1231 17.12 19.1909C16.9981 19.8333 16.3987 20.2708 15.7498 20.1912C14.6933 19.986 13.6665 19.6499 12.693 19.1909C12.0027 18.8649 11.3343 18.4941 10.6923 18.0808C10.0491 18.4919 9.38085 18.8627 8.69158 19.1909C7.71807 19.6492 6.69149 19.9852 5.6354 20.1912C5.32266 20.2298 5.00695 20.1478 4.75243 19.962C4.3738 19.6859 3.79636 19.0183 3.70879 18.5558C3.57496 17.4878 3.57496 16.4073 3.70879 15.3394C3.79431 14.5625 3.9411 13.7934 4.14874 13.0399C3.76717 12.6968 3.4004 12.3376 3.04944 11.9632C2.83786 11.7396 2.63427 11.5085 2.43902 11.2704C1.72161 10.5022 1.09996 9.64978 0.58766 8.73187C0.310196 8.1466 0.527653 7.4463 1.08788 7.12111C2.06748 6.67077 3.09905 6.34327 4.15903 6.14598C4.91014 5.98433 5.67283 5.88217 6.44001 5.84053C6.71795 5.13146 7.04214 4.44145 7.41048 3.77486C7.92382 2.8202 8.55387 1.93311 9.28604 1.13385C9.76132 0.687806 10.5014 0.687806 10.9766 1.13385C11.8988 2.13061 12.76 3.19227 13.408 4.39042C13.6816 4.85557 13.9283 5.33517 14.1488 5.82762C14.8607 5.8745 15.569 5.96774 16.269 6.10582Z" fill="#00034A" stroke="#00034A" stroke-miterlimit="10"/>
<path d="M19.3351 7.10615C18.3593 6.64489 17.3292 6.30873 16.2691 6.10582C15.4721 5.94832 14.6646 5.84967 13.8532 5.81066C13.5736 5.10059 13.2391 4.41342 12.8528 3.75528C12.3394 2.80655 11.7091 1.92586 10.9767 1.13385C10.5014 0.687806 9.7614 0.687806 9.28612 1.13385C8.55395 1.93311 7.9239 2.8202 7.41056 3.77486C7.04222 4.44145 6.71803 5.13146 6.44004 5.84053C5.67254 5.88222 4.91012 5.98475 4.15911 6.14598C3.09913 6.34327 2.06756 6.67077 1.08796 7.12111C0.527943 7.44646 0.310697 8.1467 0.588265 8.73187C1.11337 9.67288 1.75345 10.545 2.4937 11.3281C3.02269 11.8923 3.58738 12.4219 4.18431 12.9136C3.95787 13.7076 3.7988 14.5192 3.70887 15.3398C3.5751 16.4076 3.5751 17.488 3.70887 18.5558C3.83051 19.1983 4.43006 19.636 5.07912 19.5561C6.13544 19.3502 7.16218 19.0142 8.13584 18.5558C8.82512 18.2274 9.49334 17.8565 10.1366 17.4451C10.7785 17.8586 11.4469 18.2296 12.1373 18.5558C13.1106 19.0147 14.1372 19.3508 15.1935 19.5561C15.8425 19.636 16.4421 19.1983 16.5637 18.5558C16.6976 17.4879 16.6976 16.4077 16.5637 15.3394C16.4813 14.5541 16.3377 13.7764 16.1341 13.0136C16.7884 12.4996 17.3961 11.9289 17.9499 11.308C18.6896 10.5232 19.3312 9.6514 19.8605 8.71181C20.1354 8.12171 19.9056 7.41958 19.3351 7.10615Z" fill="#FFC849" stroke="#00034A" stroke-miterlimit="10"/>
</g>
</g>
<defs>
<clipPath id="clip0_534_777">
<rect width="21" height="21" fill="white"/>
</clipPath>
</defs>
</svg>
