<svg width="40" height="40" viewBox="0 0 40 40" fill="none" xmlns="http://www.w3.org/2000/svg">
<g clip-path="url(#clip0_459_707)">
<mask id="mask0_459_707" style="mask-type:luminance" maskUnits="userSpaceOnUse" x="0" y="0" width="40" height="40">
<path d="M0 0H40V40H0V0Z" fill="white"/>
</mask>
<g mask="url(#mask0_459_707)">
<path d="M19.0201 0.5C8.80014 0.5 0.515137 8.784 0.515137 19.003C0.515137 29.55 10.4331 39.468 20.9801 39.468C31.1991 39.468 39.4831 31.183 39.4831 20.964C39.4841 10.418 29.5661 0.5 19.0191 0.5H19.0201Z" fill="#00034A" stroke="#00034A" stroke-miterlimit="10" stroke-linecap="round" stroke-linejoin="round"/>
<path d="M19.003 37.506C29.222 37.506 37.506 29.222 37.506 19.003C37.506 8.784 29.222 0.5 19.003 0.5C8.784 0.5 0.5 8.784 0.5 19.003C0.5 29.222 8.784 37.506 19.003 37.506Z" fill="white" stroke="#00034A" stroke-miterlimit="10" stroke-linecap="round" stroke-linejoin="round"/>
<path d="M28.5681 24.1358C28.416 23.4058 26.376 21.1478 24.317 19.0028C26.376 16.8588 28.416 14.5998 28.567 13.8698C29.004 13.0248 27.97 11.8678 27.059 10.9468C26.149 10.0268 24.9811 9.04877 24.1361 9.43777C23.406 9.58977 21.1481 11.6298 19.0031 13.6888C16.8591 11.6298 14.6 9.58977 13.87 9.43977C13.025 9.00277 11.8681 10.0368 10.9571 10.9478C10.0461 11.8588 9.00204 13.0258 9.43804 13.8708C9.59004 14.6008 11.6301 16.8598 13.6891 19.0038C11.6301 21.1488 9.59004 23.4068 9.43904 24.1368C9.00204 24.9818 10.036 26.1398 10.947 27.0598C11.858 27.9798 13.025 29.0048 13.87 28.5688C14.6 28.4168 16.8591 26.3768 19.0031 24.3178C21.1481 26.3768 23.406 28.4168 24.1361 28.5678C24.9811 29.0048 26.139 27.9708 27.059 27.0598C27.979 26.1498 29.0041 24.9808 28.5681 24.1358Z" fill="black"/>
</g>
</g>
<defs>
<clipPath id="clip0_459_707">
<rect width="40" height="40" fill="white"/>
</clipPath>
</defs>
</svg>
