<svg width="37" height="37" viewBox="0 0 37 37" fill="none" xmlns="http://www.w3.org/2000/svg">
<g filter="url(#filter0_d_458_705)">
<path d="M0 17.5C0 7.83502 7.83502 0 17.5 0C27.165 0 35 7.83502 35 17.5C35 27.165 27.165 35 17.5 35C7.83502 35 0 27.165 0 17.5Z" fill="white" shape-rendering="crispEdges"/>
<path d="M17.5 1C26.6127 1 34 8.3873 34 17.5C34 26.6127 26.6127 34 17.5 34C8.3873 34 1 26.6127 1 17.5C1 8.3873 8.3873 1 17.5 1Z" stroke="#2D2926" stroke-width="2" shape-rendering="crispEdges"/>
<g clip-path="url(#clip0_458_705)">
<path d="M26.3499 19.0699H14.6999L19.7499 24.1199L17.4999 26.3499L8.6499 17.4999L17.4999 8.6499L19.7499 10.8699L14.6999 15.9199H26.3499V19.0699Z" fill="#2D2926"/>
</g>
</g>
<defs>
<filter id="filter0_d_458_705" x="0" y="0" width="37" height="37" filterUnits="userSpaceOnUse" color-interpolation-filters="sRGB">
<feFlood flood-opacity="0" result="BackgroundImageFix"/>
<feColorMatrix in="SourceAlpha" type="matrix" values="0 0 0 0 0 0 0 0 0 0 0 0 0 0 0 0 0 0 127 0" result="hardAlpha"/>
<feOffset dx="2" dy="2"/>
<feComposite in2="hardAlpha" operator="out"/>
<feColorMatrix type="matrix" values="0 0 0 0 0 0 0 0 0 0 0 0 0 0 0 0 0 0 1 0"/>
<feBlend mode="normal" in2="BackgroundImageFix" result="effect1_dropShadow_458_705"/>
<feBlend mode="normal" in="SourceGraphic" in2="effect1_dropShadow_458_705" result="shape"/>
</filter>
<clipPath id="clip0_458_705">
<rect width="17.7" height="17.7" fill="white" transform="translate(8.6499 8.6499)"/>
</clipPath>
</defs>
</svg>
