<svg width="25" height="25" viewBox="0 0 25 25" fill="none" xmlns="http://www.w3.org/2000/svg">
<g clip-path="url(#clip0_251_726)">
<rect width="25" height="25" rx="12.5" fill="#FDFAEE"/>
<path d="M7.51657 13.099L6.91123 13.635C7.05708 13.7998 7.26375 13.8979 7.48357 13.9068C7.70339 13.9159 7.91738 13.8348 8.07617 13.6826L7.51657 13.099ZM9.82537 12.0056C10.1477 11.6965 10.1585 11.1846 9.84942 10.8622C9.54036 10.54 9.0285 10.5292 8.70615 10.8382L9.82537 12.0056ZM6.63673 10.8858C6.34066 10.5515 5.82963 10.5205 5.4953 10.8165C5.16098 11.1126 5.12997 11.6236 5.42603 11.9579L6.63673 10.8858ZM15.6608 9.27565C15.9641 9.60348 16.4757 9.62338 16.8036 9.32012C17.1313 9.01687 17.1512 8.50529 16.848 8.17747L15.6608 9.27565ZM12.5472 6.30078C9.32831 6.30078 6.70798 8.89151 6.70798 12.1007H8.32517C8.32517 9.79661 10.2095 7.91797 12.5472 7.91797V6.30078ZM6.70798 12.1007V13.099H8.32517V12.1007H6.70798ZM8.07617 13.6826L9.82537 12.0056L8.70615 10.8382L6.95696 12.5153L8.07617 13.6826ZM8.12192 12.5629L6.63673 10.8858L5.42603 11.9579L6.91123 13.635L8.12192 12.5629ZM16.848 8.17747C15.7811 7.02409 14.248 6.30078 12.5472 6.30078V7.91797C13.7808 7.91797 14.8887 8.4409 15.6608 9.27565L16.848 8.17747Z" fill="black"/>
<path d="M17.4796 11.9009L18.0842 11.3639C17.9381 11.1994 17.7314 11.1017 17.5117 11.0929C17.2919 11.0842 17.0782 11.1654 16.9196 11.3177L17.4796 11.9009ZM15.1743 12.9939C14.8521 13.3032 14.8419 13.8151 15.1512 14.1371C15.4605 14.4593 15.9724 14.4696 16.2945 14.1603L15.1743 12.9939ZM18.3642 14.1142C18.6608 14.4479 19.172 14.4781 19.5058 14.1815C19.8397 13.8849 19.8699 13.3739 19.5733 13.04L18.3642 14.1142ZM9.31617 15.7394C9.01057 15.4138 8.49886 15.3976 8.17322 15.7032C7.84759 16.0087 7.83136 16.5205 8.13696 16.8461L9.31617 15.7394ZM12.4297 18.6991C15.6563 18.6991 18.2882 16.1113 18.2882 12.8992H16.6711C16.6711 15.2004 14.7811 17.0819 12.4297 17.0819V18.6991ZM18.2882 12.8992V11.9009H16.6711V12.8992H18.2882ZM16.9196 11.3177L15.1743 12.9939L16.2945 14.1603L18.0397 12.4841L16.9196 11.3177ZM16.8751 12.438L18.3642 14.1142L19.5733 13.04L18.0842 11.3639L16.8751 12.438ZM8.13696 16.8461C9.2068 17.986 10.7357 18.6991 12.4297 18.6991V17.0819C11.1976 17.0819 10.0909 16.5649 9.31617 15.7394L8.13696 16.8461Z" fill="black"/>
</g>
<rect x="0.5" y="0.5" width="24" height="24" rx="12" stroke="black"/>
<defs>
<clipPath id="clip0_251_726">
<rect width="25" height="25" rx="12.5" fill="white"/>
</clipPath>
</defs>
</svg>
