<svg width="60" height="60" viewBox="0 0 35 35" fill="none" xmlns="http://www.w3.org/2000/svg">
<rect x="0.5" y="0.5" width="34" height="34" rx="17" fill="white"/>
<rect x="0.5" y="0.5" width="34" height="34" rx="17" stroke="black"/>
<path d="M10.3118 9.96195C9.14613 10.0477 8.24268 10.9267 8.14306 12.0913C8.02828 13.4331 7.91284 15.5053 7.91284 18.4132C7.91284 21.321 8.02828 23.3933 8.14306 24.735C8.24268 25.8996 9.14613 26.7787 10.3118 26.8644C11.7855 26.9728 14.1372 27.0871 17.4998 27.0871C20.8624 27.0871 23.2141 26.9728 24.6878 26.8644C25.8535 26.7787 26.7569 25.8996 26.8565 24.735C26.9713 23.3933 27.0868 21.321 27.0868 18.4132C27.0868 15.5054 26.9713 13.4331 26.8565 12.0913C26.7569 10.9267 25.8535 10.0477 24.6878 9.96195C23.2141 9.85359 20.8624 9.73926 17.4998 9.73926C14.1372 9.73926 11.7855 9.85359 10.3118 9.96195Z" fill="#38B3BA"/>
<path fill-rule="evenodd" clip-rule="evenodd" d="M13.163 7C13.0412 7 12.9275 7.00177 12.8215 7.00499C11.769 7.037 11.1484 7.88899 11.1215 8.8313C11.12 8.88389 11.1186 8.93792 11.1173 8.99333C10.799 9.01235 10.5085 9.03187 10.2451 9.05123C8.63927 9.16931 7.37201 10.3946 7.23354 12.0133C7.11639 13.3828 7 15.4811 7 18.413C7 21.345 7.11639 23.4433 7.23354 24.8127C7.37201 26.4314 8.63927 27.6568 10.2451 27.7748C11.7427 27.885 14.1168 28 17.5 28C20.8832 28 23.2573 27.885 24.755 27.7748C26.3607 27.6568 27.628 26.4314 27.7664 24.8127C27.8836 23.4433 28 21.345 28 18.413C28 15.4811 27.8836 13.3828 27.7664 12.0133C27.628 10.3946 26.3607 9.16931 24.7549 9.05124C24.4915 9.03187 24.2011 9.01235 23.8827 8.99333C23.8814 8.93792 23.88 8.88389 23.8785 8.8313C23.8516 7.88899 23.231 7.037 22.1785 7.00499C22.0725 7.00177 21.9588 7 21.837 7C21.7151 7 21.6014 7.00177 21.4954 7.00499C20.4429 7.037 19.8223 7.88899 19.7954 8.8313L19.795 8.84484C19.0886 8.83292 18.3242 8.82609 17.5 8.82609C16.6757 8.82609 15.9113 8.83292 15.205 8.84484L15.2046 8.8313C15.1777 7.88899 14.5571 7.037 13.5046 7.00499C13.3986 7.00177 13.2849 7 13.163 7ZM10.379 10.8724C10.6083 10.8555 10.8595 10.8385 11.1333 10.8218C11.2273 11.6922 11.8345 12.4432 12.8215 12.4733C12.9275 12.4765 13.0412 12.4783 13.163 12.4783C13.2849 12.4783 13.3986 12.4765 13.5046 12.4733C14.5481 12.4416 15.167 11.6038 15.2038 10.6712C15.9086 10.6591 16.6733 10.6522 17.5 10.6522C18.3267 10.6522 19.0914 10.6591 19.7962 10.6712C19.833 11.6038 20.4519 12.4416 21.4954 12.4733C21.6014 12.4765 21.7151 12.4783 21.837 12.4783C21.9588 12.4783 22.0725 12.4765 22.1785 12.4733C23.1655 12.4432 23.7727 11.6922 23.8666 10.8218C24.1404 10.8385 24.3917 10.8555 24.621 10.8724C25.3466 10.9258 25.8863 11.4585 25.947 12.169C26.0594 13.4831 26.1739 15.5293 26.1739 18.413C26.1739 21.2968 26.0594 23.343 25.947 24.6571C25.8863 25.3676 25.3466 25.9003 24.621 25.9537C23.1712 26.0603 20.842 26.1739 17.5 26.1739C14.158 26.1739 11.8288 26.0603 10.379 25.9537C9.65338 25.9003 9.11376 25.3676 9.05298 24.6571C8.94057 23.343 8.82609 21.2968 8.82609 18.413C8.82609 15.5293 8.94057 13.4831 9.05298 12.169C9.11376 11.4585 9.65339 10.9258 10.379 10.8724ZM20.9422 15.4177C20.3862 15.0781 19.7538 15.2806 19.3586 15.71C19.3047 15.7685 19.2553 15.8312 19.211 15.8974C18.3951 17.1167 17.7751 18.0413 17.359 18.6611C17.1527 18.9685 16.9965 19.2009 16.8915 19.357C16.8399 19.3012 16.7792 19.2351 16.7107 19.1602C16.4773 18.9048 16.1534 18.546 15.7922 18.1327C15.2884 17.5563 14.4001 17.3743 13.7885 17.9319C13.6002 18.1036 13.4037 18.3034 13.2212 18.5276C12.8065 19.0369 12.9096 19.7314 13.2894 20.1983C14.2338 21.3593 15.0786 22.2633 15.7197 22.9044C16.4906 23.6755 17.699 23.5937 18.3633 22.7309C19.107 21.7653 20.2527 20.1867 21.86 17.7359C22.1408 17.3078 22.239 16.7018 21.8811 16.242C21.5953 15.8748 21.2528 15.6074 20.9422 15.4177Z" fill="black"/>
</svg>
