<svg width="25" height="25" viewBox="0 0 25 25" fill="none" xmlns="http://www.w3.org/2000/svg">
<rect x="0.5" y="0.5" width="24" height="24" rx="12" fill="#FDFAEE"/>
<rect x="0.5" y="0.5" width="24" height="24" rx="12" stroke="black"/>
<path d="M13.0097 20C12.0362 20 11.1242 19.8153 10.274 19.4458C9.42375 19.0764 8.68383 18.5773 8.05424 17.9486C7.42466 17.3199 6.9249 16.581 6.55494 15.7319C6.18498 14.8829 6 13.9722 6 13C6 12.0278 6.18498 11.1171 6.55494 10.2681C6.9249 9.41899 7.42466 8.68011 8.05424 8.05139C8.68383 7.42268 9.42375 6.92361 10.274 6.55417C11.1242 6.18472 12.0362 6 13.0097 6V7.16667C11.4001 7.16667 10.0241 7.73705 8.88178 8.87778C7.73947 10.0185 7.16829 11.3926 7.16829 13C7.16829 14.6204 7.73947 15.9977 8.88178 17.1319C10.0241 18.2662 11.4001 18.8333 13.0097 18.8333V20ZM16.3783 16.6361L15.5605 15.8L17.7608 13.6028H10.6732V12.4361H17.7608L15.5605 10.2194L16.3783 9.40278L20 13.0194L16.3783 16.6361Z" fill="black"/>
</svg>
